<?xml version="1.0" encoding="UTF-8"?>
<svg xmlns="http://www.w3.org/2000/svg" xmlns:xlink="http://www.w3.org/1999/xlink" width="18" height="18pt" viewBox="0 0 18 18" version="1.1">
<defs>
<clipPath id="clip1">
  <path d="M 2 0 L 16 0 L 16 18 L 2 18 Z M 2 0 "/>
</clipPath>
<clipPath id="clip2">
  <path d="M 5.410156 0.5625 L 13.152344 0.5625 C 14.585938 0.5625 15.75 1.726562 15.75 3.160156 L 15.75 14.839844 C 15.75 16.273438 14.585938 17.4375 13.152344 17.4375 L 5.410156 17.4375 C 3.976562 17.4375 2.8125 16.273438 2.8125 14.839844 L 2.8125 3.160156 C 2.8125 1.726562 3.976562 0.5625 5.410156 0.5625 Z M 5.410156 0.5625 "/>
</clipPath>
<clipPath id="clip3">
  <path d="M 3 1 L 16 1 L 16 17 L 3 17 Z M 3 1 "/>
</clipPath>
<clipPath id="clip4">
  <path d="M 5.410156 0.5625 L 13.152344 0.5625 C 14.585938 0.5625 15.75 1.726562 15.75 3.160156 L 15.75 14.839844 C 15.75 16.273438 14.585938 17.4375 13.152344 17.4375 L 5.410156 17.4375 C 3.976562 17.4375 2.8125 16.273438 2.8125 14.839844 L 2.8125 3.160156 C 2.8125 1.726562 3.976562 0.5625 5.410156 0.5625 Z M 5.410156 0.5625 "/>
</clipPath>
<linearGradient id="linear0" gradientUnits="userSpaceOnUse" x1="15.5" y1="5.949748" x2="4" y2="31" gradientTransform="matrix(0.536932,0,0,0.543103,0.958807,0.310345)">
<stop offset="0" style="stop-color:rgb(23.529412%,23.529412%,23.529412%);stop-opacity:1;"/>
<stop offset="1" style="stop-color:rgb(61.960784%,61.960784%,61.960784%);stop-opacity:1;"/>
</linearGradient>
<clipPath id="clip5">
  <path d="M 4 8 L 12 8 L 12 16 L 4 16 Z M 4 8 "/>
</clipPath>
<clipPath id="clip6">
  <path d="M 5.410156 0.5625 L 13.152344 0.5625 C 14.585938 0.5625 15.75 1.726562 15.75 3.160156 L 15.75 14.839844 C 15.75 16.273438 14.585938 17.4375 13.152344 17.4375 L 5.410156 17.4375 C 3.976562 17.4375 2.8125 16.273438 2.8125 14.839844 L 2.8125 3.160156 C 2.8125 1.726562 3.976562 0.5625 5.410156 0.5625 Z M 5.410156 0.5625 "/>
</clipPath>
<linearGradient id="linear1" gradientUnits="userSpaceOnUse" x1="253.74718" y1="412.82977" x2="188.00023" y2="542.33295" gradientTransform="matrix(0.0422298,0.000247412,-0.000247412,0.0422298,-1.331955,-7.269739)">
<stop offset="0" style="stop-color:rgb(0%,51.764706%,86.666667%);stop-opacity:1;"/>
<stop offset="1" style="stop-color:rgb(100%,100%,100%);stop-opacity:1;"/>
</linearGradient>
<clipPath id="clip7">
  <path d="M 2 4 L 16 4 L 16 18 L 2 18 Z M 2 4 "/>
</clipPath>
<clipPath id="clip8">
  <path d="M 5.410156 0.5625 L 13.152344 0.5625 C 14.585938 0.5625 15.75 1.726562 15.75 3.160156 L 15.75 14.839844 C 15.75 16.273438 14.585938 17.4375 13.152344 17.4375 L 5.410156 17.4375 C 3.976562 17.4375 2.8125 16.273438 2.8125 14.839844 L 2.8125 3.160156 C 2.8125 1.726562 3.976562 0.5625 5.410156 0.5625 Z M 5.410156 0.5625 "/>
</clipPath>
<clipPath id="clip9">
  <path d="M 9 2 L 14 2 L 14 7 L 9 7 Z M 9 2 "/>
</clipPath>
<clipPath id="clip10">
  <path d="M 5.410156 0.5625 L 13.152344 0.5625 C 14.585938 0.5625 15.75 1.726562 15.75 3.160156 L 15.75 14.839844 C 15.75 16.273438 14.585938 17.4375 13.152344 17.4375 L 5.410156 17.4375 C 3.976562 17.4375 2.8125 16.273438 2.8125 14.839844 L 2.8125 3.160156 C 2.8125 1.726562 3.976562 0.5625 5.410156 0.5625 Z M 5.410156 0.5625 "/>
</clipPath>
<linearGradient id="linear2" gradientUnits="userSpaceOnUse" x1="253.74718" y1="412.82977" x2="188.00023" y2="542.33295" gradientTransform="matrix(0.017614,-0.0141883,0.0141883,0.017614,1.305478,0.116336)">
<stop offset="0" style="stop-color:rgb(0%,51.764706%,86.666667%);stop-opacity:1;"/>
<stop offset="1" style="stop-color:rgb(100%,100%,100%);stop-opacity:1;"/>
</linearGradient>
<clipPath id="clip11">
  <path d="M 6 0 L 16 0 L 16 11 L 6 11 Z M 6 0 "/>
</clipPath>
<clipPath id="clip12">
  <path d="M 5.410156 0.5625 L 13.152344 0.5625 C 14.585938 0.5625 15.75 1.726562 15.75 3.160156 L 15.75 14.839844 C 15.75 16.273438 14.585938 17.4375 13.152344 17.4375 L 5.410156 17.4375 C 3.976562 17.4375 2.8125 16.273438 2.8125 14.839844 L 2.8125 3.160156 C 2.8125 1.726562 3.976562 0.5625 5.410156 0.5625 Z M 5.410156 0.5625 "/>
</clipPath>
<clipPath id="clip13">
  <path d="M 2 0 L 16 0 L 16 12 L 2 12 Z M 2 0 "/>
</clipPath>
<clipPath id="clip14">
  <path d="M 5.410156 0.5625 L 13.152344 0.5625 C 14.585938 0.5625 15.75 1.726562 15.75 3.160156 L 15.75 14.839844 C 15.75 16.273438 14.585938 17.4375 13.152344 17.4375 L 5.410156 17.4375 C 3.976562 17.4375 2.8125 16.273438 2.8125 14.839844 L 2.8125 3.160156 C 2.8125 1.726562 3.976562 0.5625 5.410156 0.5625 Z M 5.410156 0.5625 "/>
</clipPath>
<linearGradient id="linear3" gradientUnits="userSpaceOnUse" x1="247" y1="441.86218" x2="292" y2="282.36218" gradientTransform="matrix(0.0519802,0,0,0.0519802,-3.182468,-14.423794)">
<stop offset="0" style="stop-color:rgb(100%,100%,100%);stop-opacity:0.494118;"/>
<stop offset="1" style="stop-color:rgb(100%,100%,100%);stop-opacity:0.25098;"/>
</linearGradient>
</defs>
<g id="surface1">
<g clip-path="url(#clip1)" clip-rule="nonzero">
<g clip-path="url(#clip2)" clip-rule="nonzero">
<rect x="0" y="0" width="18" height="18" style="fill:rgb(0%,0%,0%);fill-opacity:1;stroke:none;"/>
</g>
</g>
<g clip-path="url(#clip3)" clip-rule="nonzero">
<g clip-path="url(#clip4)" clip-rule="nonzero">
<path style=" stroke:none;fill-rule:nonzero;fill:url(#linear0);" d="M 5.625 1.125 L 12.9375 1.125 C 14.179688 1.125 15.1875 2.132812 15.1875 3.375 L 15.1875 14.625 C 15.1875 15.867188 14.179688 16.875 12.9375 16.875 L 5.625 16.875 C 4.382812 16.875 3.375 15.867188 3.375 14.625 L 3.375 3.375 C 3.375 2.132812 4.382812 1.125 5.625 1.125 Z M 5.625 1.125 "/>
</g>
</g>
<g clip-path="url(#clip5)" clip-rule="nonzero">
<g clip-path="url(#clip6)" clip-rule="nonzero">
<path style=" stroke:none;fill-rule:nonzero;fill:url(#linear1);" d="M 10.972656 14.910156 C 10.589844 15.277344 9.054688 14.148438 8.523438 14.21875 C 7.996094 14.292969 6.820312 15.796875 6.351562 15.542969 C 5.878906 15.289062 6.480469 13.480469 6.25 13 C 6.015625 12.519531 4.222656 11.867188 4.320312 11.339844 C 4.414062 10.816406 6.320312 10.828125 6.707031 10.457031 C 7.089844 10.089844 7.15625 8.183594 7.6875 8.109375 C 8.214844 8.039062 8.792969 9.855469 9.261719 10.109375 C 9.734375 10.359375 11.566406 9.835938 11.800781 10.316406 C 12.03125 10.796875 10.480469 11.90625 10.386719 12.433594 C 10.292969 12.957031 11.359375 14.539062 10.972656 14.910156 Z M 10.972656 14.910156 "/>
</g>
</g>
<g clip-path="url(#clip7)" clip-rule="nonzero">
<g clip-path="url(#clip8)" clip-rule="nonzero">
<path style="fill:none;stroke-width:15.983695;stroke-linecap:butt;stroke-linejoin:miter;stroke:rgb(100%,100%,100%);stroke-opacity:1;stroke-miterlimit:4;" d="M 294.439625 523.493867 C 285.425893 532.241659 248.918099 505.723098 236.348309 507.461738 C 223.871558 509.292332 196.238703 545.066656 185.103881 539.119403 C 173.876563 533.172692 187.870142 490.26329 182.346185 478.918176 C 176.729731 467.573603 134.183272 452.375399 136.42253 439.874804 C 138.569834 427.467248 183.709823 427.480286 192.815509 418.639455 C 201.829241 409.891663 203.137232 364.744087 215.70648 362.912951 C 228.183773 361.174854 242.125265 404.105592 253.260086 410.052845 C 264.486863 415.907059 307.795174 403.258352 313.411628 414.602925 C 318.935585 425.94804 282.368319 452.432226 280.221557 464.932279 C 278.074253 477.339836 303.545311 514.653036 294.439625 523.493867 Z M 294.439625 523.493867 " transform="matrix(0.0422298,0.000247412,-0.000247412,0.0422298,-1.331955,-7.269739)"/>
</g>
</g>
<g clip-path="url(#clip9)" clip-rule="nonzero">
<g clip-path="url(#clip10)" clip-rule="nonzero">
<path style=" stroke:none;fill-rule:nonzero;fill:url(#linear2);" d="M 13.917969 5.160156 C 13.882812 5.441406 12.863281 5.492188 12.667969 5.703125 C 12.472656 5.910156 12.496094 6.929688 12.214844 6.984375 C 11.933594 7.039062 11.570312 6.085938 11.3125 5.964844 C 11.050781 5.84375 10.089844 6.179688 9.949219 5.929688 C 9.8125 5.679688 10.605469 5.039062 10.640625 4.753906 C 10.675781 4.472656 10.058594 3.660156 10.253906 3.449219 C 10.449219 3.238281 11.304688 3.800781 11.585938 3.746094 C 11.867188 3.691406 12.449219 2.851562 12.707031 2.972656 C 12.96875 3.09375 12.699219 4.078125 12.835938 4.328125 C 12.976562 4.578125 13.953125 4.875 13.917969 5.160156 Z M 13.917969 5.160156 "/>
</g>
</g>
<g clip-path="url(#clip11)" clip-rule="nonzero">
<g clip-path="url(#clip12)" clip-rule="nonzero">
<path style="fill:none;stroke-width:24.869898;stroke-linecap:butt;stroke-linejoin:miter;stroke:rgb(100%,100%,100%);stroke-opacity:1;stroke-miterlimit:4;" d="M 294.379481 523.479942 C 285.36842 532.188834 248.855621 505.660276 236.280222 507.506188 C 223.813165 509.2176 196.34311 544.972011 185.142371 539.054437 C 173.941632 533.136864 187.868432 490.243261 182.350044 478.923258 C 176.697156 467.494914 134.292942 452.409935 136.384797 439.901686 C 138.611152 427.501778 183.682502 427.437126 192.801904 418.593735 C 201.812965 409.884843 203.097016 364.791043 215.672415 362.945131 C 228.247813 361.099219 242.102067 404.193865 253.302806 410.111439 C 264.503545 416.029012 307.837323 403.254463 313.355712 414.574465 C 319.0086 426.002809 282.426155 452.421135 280.1998 464.821043 C 278.107945 477.329293 303.498883 514.636551 294.379481 523.479942 Z M 294.379481 523.479942 " transform="matrix(0.017614,-0.0141883,0.0141883,0.017614,1.305478,0.116336)"/>
</g>
</g>
<g clip-path="url(#clip13)" clip-rule="nonzero">
<g clip-path="url(#clip14)" clip-rule="nonzero">
<path style=" stroke:none;fill-rule:nonzero;fill:url(#linear3);" d="M 1.496094 0.253906 L 17.039062 0.253906 L 16.570312 11.472656 C 14.558594 9.292969 7.214844 5.925781 2.035156 5.925781 Z M 1.496094 0.253906 "/>
</g>
</g>
</g>
</svg>
